# xmcd
#
# Track frame offsets:
#	150
#	14524
#	28313
#	42969
#	58296
#	70168
#	92690
#	109915
#	124677
#
# Disc length: 1866 seconds
#
# Revision: 1
# Processed by: cddbd v1.5.1PL2 Copyright (c) Steve Scherf et al.
# Submitted via: EasyCDDAExtractor 6.5.9.5
#
DISCID=7e074809
DTITLE=Ronnie Milsap - Stranger Things Have Happened
DYEAR=1989
DGENRE=Country
TTITLE0=Stranger Things Have Happened
TTITLE1=Don't You Ever Get Tired Of Hurting Me
TTITLE2=A Woman In Love
TTITLE3=You Snap Your Fingers
TTITLE4=Starting Today
TTITLE5=Roll The Dice
TTITLE6=I Feel Like I'm Cheating On You
TTITLE7=I Never Expected To See You
TTITLE8=Houston Solution
EXTD=
EXTT0=
EXTT1=
EXTT2=
EXTT3=
EXTT4=
EXTT5=
EXTT6=
EXTT7=
EXTT8=
PLAYORDER=
